{
  "source": "C:\\Users\\Peter\\Desktop\\stuff\\MIUN\\quantitative_research\\video_compression\\videos\\BVI-HD\\BVI-HD_CDVL_videos\\ORIG\\Diver_1920x1080_30fps.mp4",
  "output": "C:\\Users\\Peter\\Desktop\\stuff\\MIUN\\quantitative_research\\video_compression\\compressed_videos\\BVI-HD\\hevc\\1.5\\Diver_1920x1080_30fps_hevc.mp4",
  "codec": "hevc",
  "ok": "Input #0, mov,mp4,m4a,3gp,3g2,mj2, from 'C:\\Users\\Peter\\Desktop\\stuff\\MIUN\\quantitative_research\\video_compression\\videos\\BVI-HD\\BVI-HD_CDVL_videos\\ORIG\\Diver_1920x1080_30fps.mp4':\n  Metadata:\n    major_brand     : isom\n    minor_version   : 512\n    compatible_brands: isomiso2avc1mp41\n    encoder         : Lavf54.28.101\n  Duration: 00:00:05.00, start: 0.000000, bitrate: 196798 kb/s\n  Stream #0:0[0x1](und): Video: h264 (High 4:4:4 Predictive) (avc1 / 0x31637661), yuv420p(progressive), 1920x1080, 196794 kb/s, 30 fps, 30 tbr, 30 tbn (default)\n    Metadata:\n      handler_name    : VideoHandler\n      vendor_id       : [0][0][0][0]\n[out#0/mp4 @ 000001908c0dad00] Codec AVOption b:a (set bitrate (in bits/s)) has not been used for any stream. The most likely reason is either wrong type (e.g. a video option with no video streams) or that it is a private option of some decoder which was not actually used for any stream.\nStream mapping:\n  Stream #0:0 -> #0:0 (h264 (native) -> hevc (libx265))\nPress [q] to stop, [?] for help\n[libx265 @ 000001908c0dfd80] Unknown option: \"aq-mode.\nx265 [info]: HEVC encoder version 4.1+190-8f11c33ac\nx265 [info]: build info [Windows][GCC 15.1.0][64 bit] 10bit\nx265 [info]: using cpu capabilities: MMX2 SSE2Fast LZCNT SSSE3 SSE4.2 AVX FMA3 BMI2 AVX2\nx265 [info]: Main 10 profile, Level-4 (Main tier)\nx265 [info]: Thread pool created using 12 threads\nx265 [info]: Slices                              : 1\nx265 [info]: frame threads / pool features       : 3 / wpp(17 rows)\nx265 [info]: Coding QT: max CU size, min CU size : 64 / 8\nx265 [info]: Residual QT: max TU size, max depth : 32 / 1 inter / 1 intra\nx265 [info]: ME / range / subpel / merge         : star / 57 / 3 / 3\nx265 [info]: Keyframe min / max / scenecut / bias  : 25 / 250 / 40 / 5.00 \nx265 [info]: Lookahead / bframes / badapt        : 25 / 4 / 2\nx265 [info]: b-pyramid / weightp / weightb       : 1 / 1 / 0\nx265 [info]: References / ref-limit  cu / depth  : 4 / on / on\nx265 [info]: AQ: mode / str / qg-size / cu-tree  : 2 / 1.0 / 32 / 1\nx265 [info]: Rate Control / qCompress            : ABR-1500 kbps / 0.60\nx265 [info]: VBV/HRD buffer / max-rate / init    : 1500 / 1500 / 0.750\nx265 [info]: tools: rect limit-modes rd=4 psy-rd=2.00 rdoq=2 psy-rdoq=1.00\nx265 [info]: tools: rskip mode=1 signhide tmvp strong-intra-smoothing lslices=4\nx265 [info]: tools: deblock sao dhdr10-info\nOutput #0, mp4, to 'C:\\Users\\Peter\\Desktop\\stuff\\MIUN\\quantitative_research\\video_compression\\compressed_videos\\BVI-HD\\hevc\\1.5\\Diver_1920x1080_30fps_hevc.mp4':\n  Metadata:\n    major_brand     : isom\n    minor_version   : 512\n    compatible_brands: isomiso2avc1mp41\n    encoder         : Lavf62.3.100\n  Stream #0:0(und): Video: hevc (hev1 / 0x31766568), yuv420p10le(tv, progressive), 1920x1080, q=2-31, 1500 kb/s, 30 fps, 15360 tbn (default)\n    Metadata:\n      encoder         : Lavc62.11.100 libx265\n      handler_name    : VideoHandler\n      vendor_id       : [0][0][0][0]\n    Side data:\n      cpb: bitrate max/min/avg: 1500000/0/1500000 buffer size: 1500000 vbv_delay: N/A\nframe=    0 fps=0.0 q=0.0 size=       0KiB time=N/A bitrate=N/A speed=N/A elapsed=0:00:00.50    \nframe=    0 fps=0.0 q=0.0 size=       0KiB time=N/A bitrate=N/A speed=N/A elapsed=0:00:01.05    \nframe=    0 fps=0.0 q=0.0 size=       0KiB time=N/A bitrate=N/A speed=N/A elapsed=0:00:01.57    \nframe=    0 fps=0.0 q=0.0 size=       0KiB time=N/A bitrate=N/A speed=N/A elapsed=0:00:02.09    \nframe=    0 fps=0.0 q=0.0 size=       0KiB time=N/A bitrate=N/A speed=N/A elapsed=0:00:02.61    \nframe=    0 fps=0.0 q=0.0 size=       0KiB time=N/A bitrate=N/A speed=N/A elapsed=0:00:03.13    \nframe=    0 fps=0.0 q=0.0 size=       0KiB time=N/A bitrate=N/A speed=N/A elapsed=0:00:03.64    \nframe=    0 fps=0.0 q=0.0 size=       0KiB time=N/A bitrate=N/A speed=N/A elapsed=0:00:04.15    \nframe=    0 fps=0.0 q=0.0 size=       0KiB time=N/A bitrate=N/A speed=N/A elapsed=0:00:04.68    \nframe=    0 fps=0.0 q=0.0 size=       0KiB time=N/A bitrate=N/A speed=N/A elapsed=0:00:05.18    \nframe=    0 fps=0.0 q=0.0 size=       0KiB time=N/A bitrate=N/A speed=N/A elapsed=0:00:05.70    \nframe=    1 fps=0.2 q=33.7 size=       0KiB time=-00:00:00.03 bitrate=N/A speed=N/A elapsed=0:00:06.22    \nframe=    2 fps=0.3 q=36.4 size=       0KiB time=00:00:00.00 bitrate=N/A speed=   0x elapsed=0:00:06.75    \nframe=    2 fps=0.3 q=36.4 size=       0KiB time=00:00:00.00 bitrate=N/A speed=   0x elapsed=0:00:07.26    \nframe=    3 fps=0.4 q=39.0 size=       0KiB time=00:00:00.03 bitrate=  10.6kbits/s speed=0.00428x elapsed=0:00:07.79    \nframe=    4 fps=0.5 q=40.3 size=       0KiB time=00:00:00.06 bitrate=   5.3kbits/s speed=0.00803x elapsed=0:00:08.30    \nframe=    5 fps=0.6 q=38.1 size=       0KiB time=00:00:00.10 bitrate=   3.5kbits/s speed=0.0113x elapsed=0:00:08.82    \nframe=    5 fps=0.5 q=38.1 size=       0KiB time=00:00:00.10 bitrate=   3.5kbits/s speed=0.0107x elapsed=0:00:09.34    \nframe=    6 fps=0.6 q=36.7 size=       0KiB time=00:00:00.13 bitrate=   2.6kbits/s speed=0.0135x elapsed=0:00:09.85    \nframe=    6 fps=0.6 q=36.7 size=       0KiB time=00:00:00.13 bitrate=   2.6kbits/s speed=0.0128x elapsed=0:00:10.38    \nframe=    7 fps=0.6 q=28.8 size=       0KiB time=00:00:00.16 bitrate=   2.1kbits/s speed=0.0153x elapsed=0:00:10.90    \nframe=    7 fps=0.6 q=28.8 size=       0KiB time=00:00:00.16 bitrate=   2.1kbits/s speed=0.0146x elapsed=0:00:11.40    \nframe=    7 fps=0.6 q=28.8 size=       0KiB time=00:00:00.16 bitrate=   2.1kbits/s speed=0.014x elapsed=0:00:11.93    \nframe=    8 fps=0.6 q=30.3 size=       0KiB time=00:00:00.20 bitrate=   1.8kbits/s speed=0.0161x elapsed=0:00:12.44    \nframe=    9 fps=0.7 q=30.2 size=       0KiB time=00:00:00.23 bitrate=   1.5kbits/s speed=0.018x elapsed=0:00:12.98    \nframe=    9 fps=0.7 q=30.2 size=       0KiB time=00:00:00.23 bitrate=   1.5kbits/s speed=0.0172x elapsed=0:00:13.54    \nframe=    9 fps=0.6 q=30.2 size=       0KiB time=00:00:00.23 bitrate=   1.5kbits/s speed=0.0166x elapsed=0:00:14.08    \nframe=    9 fps=0.6 q=30.2 size=       0KiB time=00:00:00.23 bitrate=   1.5kbits/s speed=0.0159x elapsed=0:00:14.63    \nframe=    9 fps=0.6 q=30.2 size=       0KiB time=00:00:00.23 bitrate=   1.5kbits/s speed=0.0154x elapsed=0:00:15.18    \nframe=    9 fps=0.6 q=30.2 size=       0KiB time=00:00:00.23 bitrate=   1.5kbits/s speed=0.0148x elapsed=0:00:15.74    \nframe=    9 fps=0.6 q=30.2 size=       0KiB time=00:00:00.23 bitrate=   1.5kbits/s speed=0.0143x elapsed=0:00:16.27    \nframe=    9 fps=0.5 q=30.2 size=       0KiB time=00:00:00.23 bitrate=   1.5kbits/s speed=0.0139x elapsed=0:00:16.82    \nframe=    9 fps=0.5 q=30.2 size=       0KiB time=00:00:00.23 bitrate=   1.5kbits/s speed=0.0134x elapsed=0:00:17.36    \nframe=   10 fps=0.6 q=30.0 size=       0KiB time=00:00:00.26 bitrate=   1.3kbits/s speed=0.0149x elapsed=0:00:17.90    \nframe=   10 fps=0.5 q=30.0 size=       0KiB time=00:00:00.26 bitrate=   1.3kbits/s speed=0.0145x elapsed=0:00:18.44    \nframe=   10 fps=0.5 q=30.0 size=       0KiB time=00:00:00.26 bitrate=   1.3kbits/s speed=0.014x elapsed=0:00:18.99    \nframe=   10 fps=0.5 q=30.0 size=       0KiB time=00:00:00.26 bitrate=   1.3kbits/s speed=0.0136x elapsed=0:00:19.58    \nframe=   10 fps=0.5 q=30.0 size=       0KiB time=00:00:00.26 bitrate=   1.3kbits/s speed=0.0132x elapsed=0:00:20.15    \nframe=   10 fps=0.5 q=30.0 size=       0KiB time=00:00:00.26 bitrate=   1.3kbits/s speed=0.0129x elapsed=0:00:20.69    \nframe=   11 fps=0.5 q=29.3 size=       0KiB time=00:00:00.30 bitrate=   1.2kbits/s speed=0.0141x elapsed=0:00:21.23    \nframe=   11 fps=0.5 q=29.3 size=       0KiB time=00:00:00.30 bitrate=   1.2kbits/s speed=0.0138x elapsed=0:00:21.77    \nframe=   12 fps=0.5 q=26.7 size=       0KiB time=00:00:00.33 bitrate=   1.1kbits/s speed=0.0149x elapsed=0:00:22.33    \nframe=   12 fps=0.5 q=26.7 size=       0KiB time=00:00:00.33 bitrate=   1.1kbits/s speed=0.0146x elapsed=0:00:22.89    \nframe=   12 fps=0.5 q=26.7 size=       0KiB time=00:00:00.33 bitrate=   1.1kbits/s speed=0.0142x elapsed=0:00:23.43    \nframe=   12 fps=0.5 q=26.7 size=       0KiB time=00:00:00.33 bitrate=   1.1kbits/s speed=0.0139x elapsed=0:00:23.95    \nframe=   12 fps=0.5 q=26.7 size=       0KiB time=00:00:00.33 bitrate=   1.1kbits/s speed=0.0136x elapsed=0:00:24.50    \nframe=   12 fps=0.5 q=26.7 size=       0KiB time=00:00:00.33 bitrate=   1.1kbits/s speed=0.0133x elapsed=0:00:25.05    \nframe=   12 fps=0.5 q=26.7 size=       0KiB time=00:00:00.33 bitrate=   1.1kbits/s speed=0.013x elapsed=0:00:25.62    \nframe=   12 fps=0.5 q=26.7 size=       0KiB time=00:00:00.33 bitrate=   1.1kbits/s speed=0.0127x elapsed=0:00:26.15    \nframe=   14 fps=0.5 q=29.5 size=       0KiB time=00:00:00.40 bitrate=   0.9kbits/s speed=0.015x elapsed=0:00:26.68    \nframe=   14 fps=0.5 q=29.5 size=       0KiB time=00:00:00.40 bitrate=   0.9kbits/s speed=0.0147x elapsed=0:00:27.21    \nframe=   14 fps=0.5 q=29.5 size=       0KiB time=00:00:00.40 bitrate=   0.9kbits/s speed=0.0144x elapsed=0:00:27.74    \nframe=   14 fps=0.5 q=29.5 size=       0KiB time=00:00:00.40 bitrate=   0.9kbits/s speed=0.0141x elapsed=0:00:28.27    \nframe=   14 fps=0.5 q=29.5 size=       0KiB time=00:00:00.40 bitrate=   0.9kbits/s speed=0.0139x elapsed=0:00:28.81    \nframe=   14 fps=0.5 q=29.5 size=       0KiB time=00:00:00.40 bitrate=   0.9kbits/s speed=0.0136x elapsed=0:00:29.36    \nframe=   15 fps=0.5 q=29.3 size=       0KiB time=00:00:00.43 bitrate=   0.8kbits/s speed=0.0145x elapsed=0:00:29.89    \nframe=   15 fps=0.5 q=29.3 size=       0KiB time=00:00:00.43 bitrate=   0.8kbits/s speed=0.0142x elapsed=0:00:30.42    \nframe=   15 fps=0.5 q=29.3 size=       0KiB time=00:00:00.43 bitrate=   0.8kbits/s speed=0.014x elapsed=0:00:30.96    \nframe=   15 fps=0.5 q=29.3 size=       0KiB time=00:00:00.43 bitrate=   0.8kbits/s speed=0.0137x elapsed=0:00:31.53    \nframe=   15 fps=0.5 q=29.3 size=       0KiB time=00:00:00.43 bitrate=   0.8kbits/s speed=0.0135x elapsed=0:00:32.09    \nframe=   15 fps=0.5 q=29.3 size=       0KiB time=00:00:00.43 bitrate=   0.8kbits/s speed=0.0133x elapsed=0:00:32.63    \nframe=   15 fps=0.5 q=29.3 size=       0KiB time=00:00:00.43 bitrate=   0.8kbits/s speed=0.013x elapsed=0:00:33.22    \nframe=   15 fps=0.4 q=29.3 size=       0KiB time=00:00:00.43 bitrate=   0.8kbits/s speed=0.0128x elapsed=0:00:33.79    \nframe=   15 fps=0.4 q=29.3 size=       0KiB time=00:00:00.43 bitrate=   0.8kbits/s speed=0.0126x elapsed=0:00:34.40    \nframe=   15 fps=0.4 q=29.3 size=       0KiB time=00:00:00.43 bitrate=   0.8kbits/s speed=0.0124x elapsed=0:00:34.97    \nframe=   16 fps=0.5 q=29.6 size=       0KiB time=00:00:00.46 bitrate=   0.8kbits/s speed=0.0131x elapsed=0:00:35.50    \nframe=   17 fps=0.5 q=25.9 size=       0KiB time=00:00:00.50 bitrate=   0.7kbits/s speed=0.0139x elapsed=0:00:36.02    \nframe=   17 fps=0.5 q=25.9 size=       0KiB time=00:00:00.50 bitrate=   0.7kbits/s speed=0.0137x elapsed=0:00:36.55    \nframe=   17 fps=0.5 q=25.9 size=       0KiB time=00:00:00.50 bitrate=   0.7kbits/s speed=0.0135x elapsed=0:00:37.09    \nframe=   17 fps=0.5 q=25.9 size=       0KiB time=00:00:00.50 bitrate=   0.7kbits/s speed=0.0133x elapsed=0:00:37.63    \nframe=   17 fps=0.4 q=25.9 size=       0KiB time=00:00:00.50 bitrate=   0.7kbits/s speed=0.0131x elapsed=0:00:38.18    \nframe=   18 fps=0.5 q=28.3 size=       0KiB time=00:00:00.53 bitrate=   0.7kbits/s speed=0.0138x elapsed=0:00:38.69    \nframe=   18 fps=0.5 q=28.3 size=       0KiB time=00:00:00.53 bitrate=   0.7kbits/s speed=0.0136x elapsed=0:00:39.21    \nframe=   19 fps=0.5 q=29.4 size=       0KiB time=00:00:00.56 bitrate=   0.6kbits/s speed=0.0143x elapsed=0:00:39.73    \nframe=   19 fps=0.5 q=29.4 size=       0KiB time=00:00:00.56 bitrate=   0.6kbits/s speed=0.0141x elapsed=0:00:40.25    \nframe=   19 fps=0.5 q=29.4 size=       0KiB time=00:00:00.56 bitrate=   0.6kbits/s speed=0.0139x elapsed=0:00:40.77    \nframe=   19 fps=0.5 q=29.4 size=       0KiB time=00:00:00.56 bitrate=   0.6kbits/s speed=0.0137x elapsed=0:00:41.29    \nframe=   20 fps=0.5 q=28.8 size=       0KiB time=00:00:00.60 bitrate=   0.6kbits/s speed=0.0144x elapsed=0:00:41.80    \nframe=   21 fps=0.5 q=28.6 size=       0KiB time=00:00:00.63 bitrate=   0.6kbits/s speed=0.015x elapsed=0:00:42.32    \nframe=   21 fps=0.5 q=28.6 size=       0KiB time=00:00:00.63 bitrate=   0.6kbits/s speed=0.0148x elapsed=0:00:42.84    \nframe=   21 fps=0.5 q=28.6 size=       0KiB time=00:00:00.63 bitrate=   0.6kbits/s speed=0.0146x elapsed=0:00:43.37    \nframe=   22 fps=0.5 q=25.8 size=       0KiB time=00:00:00.66 bitrate=   0.5kbits/s speed=0.0152x elapsed=0:00:43.90    \nframe=   23 fps=0.5 q=27.8 size=       0KiB time=00:00:00.70 bitrate=   0.5kbits/s speed=0.0158x elapsed=0:00:44.43    \nframe=   23 fps=0.5 q=27.8 size=       0KiB time=00:00:00.70 bitrate=   0.5kbits/s speed=0.0156x elapsed=0:00:44.96    \nframe=   24 fps=0.5 q=28.9 size=       0KiB time=00:00:00.73 bitrate=   0.5kbits/s speed=0.0161x elapsed=0:00:45.49    \nframe=   24 fps=0.5 q=28.9 size=       0KiB time=00:00:00.73 bitrate=   0.5kbits/s speed=0.0159x elapsed=0:00:46.02    \nframe=   24 fps=0.5 q=28.9 size=       0KiB time=00:00:00.73 bitrate=   0.5kbits/s speed=0.0158x elapsed=0:00:46.55    \nframe=   25 fps=0.5 q=28.7 size=       0KiB time=00:00:00.76 bitrate=   0.5kbits/s speed=0.0163x elapsed=0:00:47.06    \nframe=   25 fps=0.5 q=28.7 size=       0KiB time=00:00:00.76 bitrate=   0.5kbits/s speed=0.0161x elapsed=0:00:47.59    \nframe=   25 fps=0.5 q=28.7 size=       0KiB time=00:00:00.76 bitrate=   0.5kbits/s speed=0.0159x elapsed=0:00:48.12    \nframe=   25 fps=0.5 q=28.7 size=       0KiB time=00:00:00.76 bitrate=   0.5kbits/s speed=0.0158x elapsed=0:00:48.63    \nframe=   26 fps=0.5 q=28.9 size=       0KiB time=00:00:00.80 bitrate=   0.4kbits/s speed=0.0163x elapsed=0:00:49.17    \nframe=   26 fps=0.5 q=28.9 size=       0KiB time=00:00:00.80 bitrate=   0.4kbits/s speed=0.0161x elapsed=0:00:49.69    \nframe=   26 fps=0.5 q=28.9 size=       0KiB time=00:00:00.80 bitrate=   0.4kbits/s speed=0.0159x elapsed=0:00:50.20    \nframe=   27 fps=0.5 q=25.9 size=       0KiB time=00:00:00.83 bitrate=   0.4kbits/s speed=0.0164x elapsed=0:00:50.73    \nframe=   28 fps=0.5 q=27.7 size=       0KiB time=00:00:00.86 bitrate=   0.4kbits/s speed=0.0169x elapsed=0:00:51.26    \nframe=   28 fps=0.5 q=27.7 size=       0KiB time=00:00:00.86 bitrate=   0.4kbits/s speed=0.0167x elapsed=0:00:51.78    \nframe=   29 fps=0.6 q=29.5 size=       0KiB time=00:00:00.90 bitrate=   0.4kbits/s speed=0.0172x elapsed=0:00:52.30    \nframe=   29 fps=0.5 q=29.5 size=       0KiB time=00:00:00.90 bitrate=   0.4kbits/s speed=0.017x elapsed=0:00:52.82    \nframe=   29 fps=0.5 q=29.5 size=       0KiB time=00:00:00.90 bitrate=   0.4kbits/s speed=0.0169x elapsed=0:00:53.34    \nframe=   30 fps=0.6 q=29.2 size=       0KiB time=00:00:00.93 bitrate=   0.4kbits/s speed=0.0173x elapsed=0:00:53.88    \nframe=   30 fps=0.6 q=29.2 size=       0KiB time=00:00:00.93 bitrate=   0.4kbits/s speed=0.0172x elapsed=0:00:54.40    \nframe=   31 fps=0.6 q=29.1 size=       0KiB time=00:00:00.96 bitrate=   0.4kbits/s speed=0.0176x elapsed=0:00:54.93    \nframe=   31 fps=0.6 q=29.1 size=       0KiB time=00:00:00.96 bitrate=   0.4kbits/s speed=0.0174x elapsed=0:00:55.49    \nframe=   31 fps=0.6 q=29.1 size=       0KiB time=00:00:00.96 bitrate=   0.4kbits/s speed=0.0173x elapsed=0:00:56.01    \nframe=   31 fps=0.5 q=29.1 size=       0KiB time=00:00:00.96 bitrate=   0.4kbits/s speed=0.0171x elapsed=0:00:56.55    \nframe=   31 fps=0.5 q=29.1 size=       0KiB time=00:00:00.96 bitrate=   0.4kbits/s speed=0.0169x elapsed=0:00:57.06    \nframe=   31 fps=0.5 q=29.1 size=       0KiB time=00:00:00.96 bitrate=   0.4kbits/s speed=0.0168x elapsed=0:00:57.58    \nframe=   32 fps=0.6 q=26.1 size=       0KiB time=00:00:01.00 bitrate=   0.4kbits/s speed=0.0172x elapsed=0:00:58.10    \nframe=   32 fps=0.5 q=26.1 size=       0KiB time=00:00:01.00 bitrate=   0.4kbits/s speed=0.0171x elapsed=0:00:58.60    \nframe=   32 fps=0.5 q=26.1 size=       0KiB time=00:00:01.00 bitrate=   0.4kbits/s speed=0.0169x elapsed=0:00:59.13    \nframe=   33 fps=0.6 q=27.5 size=       0KiB time=00:00:01.03 bitrate=   0.3kbits/s speed=0.0173x elapsed=0:00:59.65    \nframe=   33 fps=0.5 q=27.5 size=       0KiB time=00:00:01.03 bitrate=   0.3kbits/s speed=0.0172x elapsed=0:01:00.18    \nframe=   33 fps=0.5 q=27.5 size=       0KiB time=00:00:01.03 bitrate=   0.3kbits/s speed=0.017x elapsed=0:01:00.70    \nframe=   33 fps=0.5 q=27.5 size=       0KiB time=00:00:01.03 bitrate=   0.3kbits/s speed=0.0169x elapsed=0:01:01.22    \nframe=   33 fps=0.5 q=27.5 size=       0KiB time=00:00:01.03 bitrate=   0.3kbits/s speed=0.0167x elapsed=0:01:01.74    \nframe=   34 fps=0.5 q=29.3 size=       0KiB time=00:00:01.06 bitrate=   0.3kbits/s speed=0.0171x elapsed=0:01:02.26    \nframe=   34 fps=0.5 q=29.3 size=       0KiB time=00:00:01.06 bitrate=   0.3kbits/s speed=0.017x elapsed=0:01:02.81    \nframe=   34 fps=0.5 q=29.3 size=       0KiB time=00:00:01.06 bitrate=   0.3kbits/s speed=0.0168x elapsed=0:01:03.33    \nframe=   35 fps=0.5 q=29.2 size=       0KiB time=00:00:01.10 bitrate=   0.3kbits/s speed=0.0172x elapsed=0:01:03.85    \nframe=   35 fps=0.5 q=29.2 size=       0KiB time=00:00:01.10 bitrate=   0.3kbits/s speed=0.0171x elapsed=0:01:04.38    \nframe=   35 fps=0.5 q=29.2 size=       0KiB time=00:00:01.10 bitrate=   0.3kbits/s speed=0.0169x elapsed=0:01:04.90    \nframe=   36 fps=0.6 q=26.1 size=       0KiB time=00:00:01.13 bitrate=   0.3kbits/s speed=0.0173x elapsed=0:01:05.42    \nframe=   36 fps=0.5 q=26.1 size=       0KiB time=00:00:01.13 bitrate=   0.3kbits/s speed=0.0172x elapsed=0:01:05.94    \nframe=   36 fps=0.5 q=26.1 size=       0KiB time=00:00:01.13 bitrate=   0.3kbits/s speed=0.0171x elapsed=0:01:06.46    \nframe=   36 fps=0.5 q=26.1 size=       0KiB time=00:00:01.13 bitrate=   0.3kbits/s speed=0.0169x elapsed=0:01:06.99    \nframe=   37 fps=0.5 q=27.1 size=       0KiB time=00:00:01.16 bitrate=   0.3kbits/s speed=0.0173x elapsed=0:01:07.50    \nframe=   38 fps=0.6 q=29.1 size=       0KiB time=00:00:01.20 bitrate=   0.3kbits/s speed=0.0176x elapsed=0:01:08.02    \nframe=   38 fps=0.6 q=29.1 size=       0KiB time=00:00:01.20 bitrate=   0.3kbits/s speed=0.0175x elapsed=0:01:08.55    \nframe=   38 fps=0.5 q=29.1 size=       0KiB time=00:00:01.20 bitrate=   0.3kbits/s speed=0.0174x elapsed=0:01:09.10    \nframe=   38 fps=0.5 q=29.1 size=       0KiB time=00:00:01.20 bitrate=   0.3kbits/s speed=0.0172x elapsed=0:01:09.60    \nframe=   38 fps=0.5 q=29.1 size=       0KiB time=00:00:01.20 bitrate=   0.3kbits/s speed=0.0171x elapsed=0:01:10.13    \nframe=   39 fps=0.6 q=29.1 size=       0KiB time=00:00:01.23 bitrate=   0.3kbits/s speed=0.0175x elapsed=0:01:10.66    \nframe=   39 fps=0.5 q=29.1 size=       0KiB time=00:00:01.23 bitrate=   0.3kbits/s speed=0.0173x elapsed=0:01:11.17    \nframe=   39 fps=0.5 q=29.1 size=       0KiB time=00:00:01.23 bitrate=   0.3kbits/s speed=0.0172x elapsed=0:01:11.69    \nframe=   39 fps=0.5 q=29.1 size=       0KiB time=00:00:01.23 bitrate=   0.3kbits/s speed=0.0171x elapsed=0:01:12.20    \nframe=   40 fps=0.5 q=29.2 size=       0KiB time=00:00:01.26 bitrate=   0.3kbits/s speed=0.0174x elapsed=0:01:12.72    \nframe=   40 fps=0.5 q=29.2 size=       0KiB time=00:00:01.26 bitrate=   0.3kbits/s speed=0.0173x elapsed=0:01:13.26    \nframe=   40 fps=0.5 q=29.2 size=       0KiB time=00:00:01.26 bitrate=   0.3kbits/s speed=0.0172x elapsed=0:01:13.79    \nframe=   40 fps=0.5 q=29.2 size=       0KiB time=00:00:01.26 bitrate=   0.3kbits/s speed=0.017x elapsed=0:01:14.32    \nframe=   41 fps=0.5 q=26.6 size=       0KiB time=00:00:01.30 bitrate=   0.3kbits/s speed=0.0174x elapsed=0:01:14.82    \nframe=   42 fps=0.6 q=26.9 size=       0KiB time=00:00:01.33 bitrate=   0.3kbits/s speed=0.0177x elapsed=0:01:15.35    \nframe=   42 fps=0.6 q=26.9 size=       0KiB time=00:00:01.33 bitrate=   0.3kbits/s speed=0.0176x elapsed=0:01:15.89    \nframe=   43 fps=0.6 q=29.9 size=       0KiB time=00:00:01.36 bitrate=   0.3kbits/s speed=0.0179x elapsed=0:01:16.44    \nframe=   43 fps=0.6 q=29.9 size=       0KiB time=00:00:01.36 bitrate=   0.3kbits/s speed=0.0178x elapsed=0:01:16.96    \nframe=   43 fps=0.6 q=29.9 size=       0KiB time=00:00:01.36 bitrate=   0.3kbits/s speed=0.0176x elapsed=0:01:17.49    \nframe=   43 fps=0.6 q=29.9 size=       0KiB time=00:00:01.36 bitrate=   0.3kbits/s speed=0.0175x elapsed=0:01:18.03    \nframe=   43 fps=0.5 q=29.9 size=       0KiB time=00:00:01.36 bitrate=   0.3kbits/s speed=0.0174x elapsed=0:01:18.55    \nframe=   43 fps=0.5 q=29.9 size=       0KiB time=00:00:01.36 bitrate=   0.3kbits/s speed=0.0173x elapsed=0:01:19.06    \nframe=   44 fps=0.6 q=29.8 size=       0KiB time=00:00:01.40 bitrate=   0.3kbits/s speed=0.0176x elapsed=0:01:19.58    \nframe=   44 fps=0.5 q=29.8 size=       0KiB time=00:00:01.40 bitrate=   0.3kbits/s speed=0.0175x elapsed=0:01:20.09    \nframe=   45 fps=0.6 q=30.1 size=       0KiB time=00:00:01.43 bitrate=   0.2kbits/s speed=0.0178x elapsed=0:01:20.63    \nframe=   45 fps=0.6 q=30.1 size=       0KiB time=00:00:01.43 bitrate=   0.2kbits/s speed=0.0177x elapsed=0:01:21.15    \nframe=   45 fps=0.6 q=30.1 size=       0KiB time=00:00:01.43 bitrate=   0.2kbits/s speed=0.0175x elapsed=0:01:21.67    \nframe=   46 fps=0.6 q=26.7 size=       0KiB time=00:00:01.46 bitrate=   0.2kbits/s speed=0.0178x elapsed=0:01:22.19    \nframe=   46 fps=0.6 q=26.7 size=       0KiB time=00:00:01.46 bitrate=   0.2kbits/s speed=0.0177x elapsed=0:01:22.70    \nframe=   46 fps=0.6 q=26.7 size=       0KiB time=00:00:01.46 bitrate=   0.2kbits/s speed=0.0176x elapsed=0:01:23.22    \nframe=   46 fps=0.5 q=26.7 size=       0KiB time=00:00:01.46 bitrate=   0.2kbits/s speed=0.0175x elapsed=0:01:23.74    \nframe=   47 fps=0.6 q=28.6 size=     256KiB time=00:00:01.50 bitrate=1398.3kbits/s speed=0.0178x elapsed=0:01:24.25    \nframe=   47 fps=0.6 q=28.6 size=     256KiB time=00:00:01.50 bitrate=1398.3kbits/s speed=0.0177x elapsed=0:01:24.80    \nframe=   47 fps=0.6 q=28.6 size=     256KiB time=00:00:01.50 bitrate=1398.3kbits/s speed=0.0176x elapsed=0:01:25.38    \nframe=   47 fps=0.5 q=28.6 size=     256KiB time=00:00:01.50 bitrate=1398.3kbits/s speed=0.0175x elapsed=0:01:25.95    \nframe=   47 fps=0.5 q=28.6 size=     256KiB time=00:00:01.50 bitrate=1398.3kbits/s speed=0.0173x elapsed=0:01:26.56    \nframe=   47 fps=0.5 q=28.6 size=     256KiB time=00:00:01.50 bitrate=1398.3kbits/s speed=0.0172x elapsed=0:01:27.13    \nframe=   47 fps=0.5 q=28.6 size=     256KiB time=00:00:01.50 bitrate=1398.3kbits/s speed=0.0171x elapsed=0:01:27.71    \nframe=   48 fps=0.5 q=30.0 size=     256KiB time=00:00:01.53 bitrate=1367.9kbits/s speed=0.0174x elapsed=0:01:28.28    \nframe=   48 fps=0.5 q=30.0 size=     256KiB time=00:00:01.53 bitrate=1367.9kbits/s speed=0.0172x elapsed=0:01:28.91    \nframe=   48 fps=0.5 q=30.0 size=     256KiB time=00:00:01.53 bitrate=1367.9kbits/s speed=0.0171x elapsed=0:01:29.48    \nframe=   49 fps=0.5 q=30.2 size=     256KiB time=00:00:01.56 bitrate=1338.8kbits/s speed=0.0174x elapsed=0:01:30.03    \nframe=   49 fps=0.5 q=30.2 size=     256KiB time=00:00:01.56 bitrate=1338.8kbits/s speed=0.0173x elapsed=0:01:30.58    \nframe=   49 fps=0.5 q=30.2 size=     256KiB time=00:00:01.56 bitrate=1338.8kbits/s speed=0.0172x elapsed=0:01:31.14    \nframe=   49 fps=0.5 q=30.2 size=     256KiB time=00:00:01.56 bitrate=1338.8kbits/s speed=0.0171x elapsed=0:01:31.73    \nframe=   49 fps=0.5 q=30.2 size=     256KiB time=00:00:01.56 bitrate=1338.8kbits/s speed=0.017x elapsed=0:01:32.26    \nframe=   49 fps=0.5 q=30.2 size=     256KiB time=00:00:01.56 bitrate=1338.8kbits/s speed=0.0169x elapsed=0:01:32.76    \nframe=   50 fps=0.5 q=30.1 size=     256KiB time=00:00:01.60 bitrate=1310.9kbits/s speed=0.0172x elapsed=0:01:33.28    \nframe=   50 fps=0.5 q=30.1 size=     256KiB time=00:00:01.60 bitrate=1310.9kbits/s speed=0.0171x elapsed=0:01:33.79    \nframe=   50 fps=0.5 q=30.1 size=     256KiB time=00:00:01.60 bitrate=1310.9kbits/s speed=0.017x elapsed=0:01:34.33    \nframe=   51 fps=0.5 q=26.9 size=     256KiB time=00:00:01.63 bitrate=1284.2kbits/s speed=0.0172x elapsed=0:01:34.87    \nframe=   51 fps=0.5 q=26.9 size=     256KiB time=00:00:01.63 bitrate=1284.2kbits/s speed=0.0171x elapsed=0:01:35.39    \nframe=   51 fps=0.5 q=26.9 size=     256KiB time=00:00:01.63 bitrate=1284.2kbits/s speed=0.017x elapsed=0:01:35.91    \nframe=   52 fps=0.5 q=28.5 size=     256KiB time=00:00:01.66 bitrate=1258.5kbits/s speed=0.0173x elapsed=0:01:36.42    \nframe=   52 fps=0.5 q=28.5 size=     256KiB time=00:00:01.66 bitrate=1258.5kbits/s speed=0.0172x elapsed=0:01:36.94    \nframe=   52 fps=0.5 q=28.5 size=     256KiB time=00:00:01.66 bitrate=1258.5kbits/s speed=0.0171x elapsed=0:01:37.47    \nframe=   53 fps=0.5 q=30.1 size=     256KiB time=00:00:01.70 bitrate=1233.8kbits/s speed=0.0173x elapsed=0:01:37.98    \nframe=   53 fps=0.5 q=30.1 size=     256KiB time=00:00:01.70 bitrate=1233.8kbits/s speed=0.0173x elapsed=0:01:38.51    \nframe=   53 fps=0.5 q=30.1 size=     256KiB time=00:00:01.70 bitrate=1233.8kbits/s speed=0.0172x elapsed=0:01:39.03    \nframe=   53 fps=0.5 q=30.1 size=     256KiB time=00:00:01.70 bitrate=1233.8kbits/s speed=0.0171x elapsed=0:01:39.55    \nframe=   53 fps=0.5 q=30.1 size=     256KiB time=00:00:01.70 bitrate=1233.8kbits/s speed=0.017x elapsed=0:01:40.07    \nframe=   54 fps=0.5 q=30.3 size=     256KiB time=00:00:01.73 bitrate=1210.1kbits/s speed=0.0172x elapsed=0:01:40.58    \nframe=   54 fps=0.5 q=30.3 size=     256KiB time=00:00:01.73 bitrate=1210.1kbits/s speed=0.0171x elapsed=0:01:41.10    \nframe=   54 fps=0.5 q=30.3 size=     256KiB time=00:00:01.73 bitrate=1210.1kbits/s speed=0.0171x elapsed=0:01:41.62    \nframe=   55 fps=0.5 q=26.9 size=     256KiB time=00:00:01.76 bitrate=1187.3kbits/s speed=0.0173x elapsed=0:01:42.15    \nframe=   55 fps=0.5 q=26.9 size=     256KiB time=00:00:01.76 bitrate=1187.3kbits/s speed=0.0172x elapsed=0:01:42.67    \nframe=   55 fps=0.5 q=26.9 size=     256KiB time=00:00:01.76 bitrate=1187.3kbits/s speed=0.0171x elapsed=0:01:43.19    \nframe=   56 fps=0.5 q=28.2 size=     256KiB time=00:00:01.80 bitrate=1165.3kbits/s speed=0.0174x elapsed=0:01:43.71    \nframe=   56 fps=0.5 q=28.2 size=     256KiB time=00:00:01.80 bitrate=1165.3kbits/s speed=0.0173x elapsed=0:01:44.22    \nframe=   57 fps=0.5 q=30.4 size=     256KiB time=00:00:01.83 bitrate=1144.1kbits/s speed=0.0175x elapsed=0:01:44.74    \nframe=   57 fps=0.5 q=30.4 size=     256KiB time=00:00:01.83 bitrate=1144.1kbits/s speed=0.0174x elapsed=0:01:45.26    \nframe=   57 fps=0.5 q=30.4 size=     256KiB time=00:00:01.83 bitrate=1144.1kbits/s speed=0.0173x elapsed=0:01:45.78    \nframe=   58 fps=0.5 q=30.5 size=     256KiB time=00:00:01.86 bitrate=1123.7kbits/s speed=0.0176x elapsed=0:01:46.29    \nframe=   58 fps=0.5 q=30.5 size=     256KiB time=00:00:01.86 bitrate=1123.7kbits/s speed=0.0175x elapsed=0:01:46.82    \nframe=   58 fps=0.5 q=30.5 size=     256KiB time=00:00:01.86 bitrate=1123.7kbits/s speed=0.0174x elapsed=0:01:47.34    \nframe=   58 fps=0.5 q=30.5 size=     256KiB time=00:00:01.86 bitrate=1123.7kbits/s speed=0.0173x elapsed=0:01:47.87    \nframe=   58 fps=0.5 q=30.5 size=     256KiB time=00:00:01.86 bitrate=1123.7kbits/s speed=0.0172x elapsed=0:01:48.39    \nframe=   59 fps=0.5 q=30.7 size=     256KiB time=00:00:01.90 bitrate=1103.9kbits/s speed=0.0174x elapsed=0:01:48.92    \nframe=   60 fps=0.5 q=27.0 size=     256KiB time=00:00:01.93 bitrate=1084.9kbits/s speed=0.0177x elapsed=0:01:49.44    \nframe=   60 fps=0.5 q=27.0 size=     256KiB time=00:00:01.93 bitrate=1084.9kbits/s speed=0.0176x elapsed=0:01:49.96    \nframe=   60 fps=0.5 q=27.0 size=     256KiB time=00:00:01.93 bitrate=1084.9kbits/s speed=0.0175x elapsed=0:01:50.51    \nframe=   61 fps=0.5 q=29.5 size=     256KiB time=00:00:01.96 bitrate=1066.5kbits/s speed=0.0177x elapsed=0:01:51.03    \nframe=   61 fps=0.5 q=29.5 size=     256KiB time=00:00:01.96 bitrate=1066.5kbits/s speed=0.0176x elapsed=0:01:51.58    \nframe=   61 fps=0.5 q=29.5 size=     256KiB time=00:00:01.96 bitrate=1066.5kbits/s speed=0.0175x elapsed=0:01:52.11    \nframe=   62 fps=0.6 q=30.9 size=     256KiB time=00:00:02.00 bitrate=1048.8kbits/s speed=0.0178x elapsed=0:01:52.64    \nframe=   62 fps=0.5 q=30.9 size=     256KiB time=00:00:02.00 bitrate=1048.8kbits/s speed=0.0177x elapsed=0:01:53.18    \nframe=   62 fps=0.5 q=30.9 size=     256KiB time=00:00:02.00 bitrate=1048.8kbits/s speed=0.0176x elapsed=0:01:53.71    \nframe=   63 fps=0.6 q=31.2 size=     256KiB time=00:00:02.03 bitrate=1031.6kbits/s speed=0.0178x elapsed=0:01:54.23    \nframe=   63 fps=0.5 q=31.2 size=     256KiB time=00:00:02.03 bitrate=1031.6kbits/s speed=0.0177x elapsed=0:01:54.75    \nframe=   64 fps=0.6 q=31.3 size=     256KiB time=00:00:02.06 bitrate=1014.9kbits/s speed=0.0179x elapsed=0:01:55.27    \nframe=   64 fps=0.6 q=31.3 size=     256KiB time=00:00:02.06 bitrate=1014.9kbits/s speed=0.0178x elapsed=0:01:55.80    \nframe=   64 fps=0.6 q=31.3 size=     256KiB time=00:00:02.06 bitrate=1014.9kbits/s speed=0.0178x elapsed=0:01:56.34    \nframe=   64 fps=0.5 q=31.3 size=     256KiB time=00:00:02.06 bitrate=1014.9kbits/s speed=0.0177x elapsed=0:01:56.91    \nframe=   64 fps=0.5 q=31.3 size=     256KiB time=00:00:02.06 bitrate=1014.9kbits/s speed=0.0176x elapsed=0:01:57.44    \nframe=   64 fps=0.5 q=31.3 size=     256KiB time=00:00:02.06 bitrate=1014.9kbits/s speed=0.0175x elapsed=0:01:57.96    \nframe=   64 fps=0.5 q=31.3 size=     256KiB time=00:00:02.06 bitrate=1014.9kbits/s speed=0.0174x elapsed=0:01:58.47    \nframe=   65 fps=0.5 q=27.0 size=     256KiB time=00:00:02.10 bitrate= 998.8kbits/s speed=0.0176x elapsed=0:01:58.99    \nframe=   65 fps=0.5 q=27.0 size=     256KiB time=00:00:02.10 bitrate= 998.8kbits/s speed=0.0176x elapsed=0:01:59.51    \nframe=   65 fps=0.5 q=27.0 size=     256KiB time=00:00:02.10 bitrate= 998.8kbits/s speed=0.0175x elapsed=0:02:00.02    \nframe=   66 fps=0.5 q=29.2 size=     256KiB time=00:00:02.13 bitrate= 983.2kbits/s speed=0.0177x elapsed=0:02:00.54    \nframe=   66 fps=0.5 q=29.2 size=     256KiB time=00:00:02.13 bitrate= 983.2kbits/s speed=0.0176x elapsed=0:02:01.06    \nframe=   67 fps=0.6 q=31.0 size=     256KiB time=00:00:02.16 bitrate= 968.1kbits/s speed=0.0178x elapsed=0:02:01.59    \nframe=   67 fps=0.5 q=31.0 size=     256KiB time=00:00:02.16 bitrate= 968.1kbits/s speed=0.0177x elapsed=0:02:02.12    \nframe=   67 fps=0.5 q=31.0 size=     256KiB time=00:00:02.16 bitrate= 968.1kbits/s speed=0.0177x elapsed=0:02:02.69    \nframe=   68 fps=0.6 q=31.7 size=     256KiB time=00:00:02.20 bitrate= 953.4kbits/s speed=0.0179x elapsed=0:02:03.21    \nframe=   68 fps=0.5 q=31.7 size=     256KiB time=00:00:02.20 bitrate= 953.4kbits/s speed=0.0178x elapsed=0:02:03.73    \nframe=   68 fps=0.5 q=31.7 size=     256KiB time=00:00:02.20 bitrate= 953.4kbits/s speed=0.0177x elapsed=0:02:04.26    \nframe=   69 fps=0.6 q=31.9 size=     256KiB time=00:00:02.20 bitrate= 953.4kbits/s speed=0.0176x elapsed=0:02:04.78    \nframe=   69 fps=0.6 q=31.9 size=     256KiB time=00:00:02.23 bitrate= 939.2kbits/s speed=0.0178x elapsed=0:02:05.31    \nframe=   70 fps=0.6 q=27.6 size=     256KiB time=00:00:02.26 bitrate= 925.4kbits/s speed=0.018x elapsed=0:02:05.83    \nframe=   70 fps=0.6 q=27.6 size=     256KiB time=00:00:02.26 bitrate= 925.4kbits/s speed=0.0179x elapsed=0:02:06.34    \nframe=   70 fps=0.6 q=27.6 size=     256KiB time=00:00:02.26 bitrate= 925.4kbits/s speed=0.0179x elapsed=0:02:06.87    \nframe=   70 fps=0.5 q=27.6 size=     256KiB time=00:00:02.26 bitrate= 925.4kbits/s speed=0.0178x elapsed=0:02:07.39    \nframe=   71 fps=0.6 q=30.9 size=     256KiB time=00:00:02.30 bitrate= 912.0kbits/s speed=0.018x elapsed=0:02:07.91    \nframe=   72 fps=0.6 q=31.7 size=     256KiB time=00:00:02.33 bitrate= 898.9kbits/s speed=0.0182x elapsed=0:02:08.43    \nframe=   72 fps=0.6 q=31.7 size=     256KiB time=00:00:02.33 bitrate= 898.9kbits/s speed=0.0181x elapsed=0:02:08.94    \nframe=   72 fps=0.6 q=31.7 size=     256KiB time=00:00:02.33 bitrate= 898.9kbits/s speed=0.018x elapsed=0:02:09.47    \nframe=   72 fps=0.6 q=31.7 size=     256KiB time=00:00:02.33 bitrate= 898.9kbits/s speed=0.0179x elapsed=0:02:10.00    \nframe=   72 fps=0.6 q=31.7 size=     256KiB time=00:00:02.33 bitrate= 898.9kbits/s speed=0.0179x elapsed=0:02:10.51    \nframe=   73 fps=0.6 q=32.1 size=     256KiB time=00:00:02.36 bitrate= 886.3kbits/s speed=0.0181x elapsed=0:02:11.03    \nframe=   73 fps=0.6 q=32.1 size=     256KiB time=00:00:02.36 bitrate= 886.3kbits/s speed=0.018x elapsed=0:02:11.57    \nframe=   74 fps=0.6 q=32.3 size=     256KiB time=00:00:02.40 bitrate= 874.0kbits/s speed=0.0182x elapsed=0:02:12.08    \nframe=   74 fps=0.6 q=32.3 size=     256KiB time=00:00:02.40 bitrate= 874.0kbits/s speed=0.0181x elapsed=0:02:12.61    \nframe=   74 fps=0.6 q=32.3 size=     256KiB time=00:00:02.40 bitrate= 874.0kbits/s speed=0.018x elapsed=0:02:13.14    \nframe=   74 fps=0.6 q=32.3 size=     256KiB time=00:00:02.40 bitrate= 874.0kbits/s speed=0.018x elapsed=0:02:13.66    \nframe=   75 fps=0.6 q=27.7 size=     256KiB time=00:00:02.43 bitrate= 862.0kbits/s speed=0.0181x elapsed=0:02:14.17    \nframe=   76 fps=0.6 q=30.4 size=     256KiB time=00:00:02.46 bitrate= 850.3kbits/s speed=0.0183x elapsed=0:02:14.70    \nframe=   76 fps=0.6 q=30.4 size=     256KiB time=00:00:02.46 bitrate= 850.3kbits/s speed=0.0182x elapsed=0:02:15.23    \nframe=   77 fps=0.6 q=32.2 size=     256KiB time=00:00:02.50 bitrate= 839.0kbits/s speed=0.0184x elapsed=0:02:15.75    \nframe=   77 fps=0.6 q=32.2 size=     256KiB time=00:00:02.50 bitrate= 839.0kbits/s speed=0.0183x elapsed=0:02:16.28    \nframe=   78 fps=0.6 q=32.3 size=     256KiB time=00:00:02.53 bitrate= 828.0kbits/s speed=0.0185x elapsed=0:02:16.80    \nframe=   78 fps=0.6 q=32.3 size=     256KiB time=00:00:02.53 bitrate= 828.0kbits/s speed=0.0184x elapsed=0:02:17.31    \nframe=   78 fps=0.6 q=32.3 size=     256KiB time=00:00:02.53 bitrate= 828.0kbits/s speed=0.0184x elapsed=0:02:17.83    \nframe=   78 fps=0.6 q=32.3 size=     256KiB time=00:00:02.53 bitrate= 828.0kbits/s speed=0.0183x elapsed=0:02:18.38    \nframe=   79 fps=0.6 q=27.7 size=     256KiB time=00:00:02.56 bitrate= 817.2kbits/s speed=0.0185x elapsed=0:02:18.91    \nframe=   80 fps=0.6 q=30.0 size=     256KiB time=00:00:02.60 bitrate= 806.7kbits/s speed=0.0186x elapsed=0:02:19.42    \nframe=   80 fps=0.6 q=30.0 size=     256KiB time=00:00:02.60 bitrate= 806.7kbits/s speed=0.0186x elapsed=0:02:19.94    \nframe=   80 fps=0.6 q=30.0 size=     256KiB time=00:00:02.60 bitrate= 806.7kbits/s speed=0.0185x elapsed=0:02:20.45    \nframe=   81 fps=0.6 q=31.7 size=     512KiB time=00:00:02.63 bitrate=1592.9kbits/s speed=0.0187x elapsed=0:02:20.99    \nframe=   81 fps=0.6 q=31.7 size=     512KiB time=00:00:02.63 bitrate=1592.9kbits/s speed=0.0186x elapsed=0:02:21.51    \nframe=   81 fps=0.6 q=31.7 size=     512KiB time=00:00:02.63 bitrate=1592.9kbits/s speed=0.0185x elapsed=0:02:22.03    \nframe=   81 fps=0.6 q=31.7 size=     512KiB time=00:00:02.63 bitrate=1592.9kbits/s speed=0.0185x elapsed=0:02:22.57    \nframe=   82 fps=0.6 q=31.9 size=     512KiB time=00:00:02.66 bitrate=1573.0kbits/s speed=0.0186x elapsed=0:02:23.14    \nframe=   82 fps=0.6 q=31.9 size=     512KiB time=00:00:02.66 bitrate=1573.0kbits/s speed=0.0186x elapsed=0:02:23.74    \nframe=   82 fps=0.6 q=31.9 size=     512KiB time=00:00:02.66 bitrate=1573.0kbits/s speed=0.0185x elapsed=0:02:24.36    \nframe=   82 fps=0.6 q=31.9 size=     512KiB time=00:00:02.66 bitrate=1573.0kbits/s speed=0.0184x elapsed=0:02:24.97    \nframe=   82 fps=0.6 q=31.9 size=     512KiB time=00:00:02.66 bitrate=1573.0kbits/s speed=0.0183x elapsed=0:02:25.54    \nframe=   82 fps=0.6 q=31.9 size=     512KiB time=00:00:02.66 bitrate=1573.0kbits/s speed=0.0183x elapsed=0:02:26.11    \nframe=   82 fps=0.6 q=31.9 size=     512KiB time=00:00:02.66 bitrate=1573.0kbits/s speed=0.0182x elapsed=0:02:26.66    \nframe=   83 fps=0.6 q=32.1 size=     512KiB time=00:00:02.70 bitrate=1553.6kbits/s speed=0.0183x elapsed=0:02:27.17    \nframe=   83 fps=0.6 q=32.1 size=     512KiB time=00:00:02.70 bitrate=1553.6kbits/s speed=0.0183x elapsed=0:02:27.70    \nframe=   83 fps=0.6 q=32.1 size=     512KiB time=00:00:02.70 bitrate=1553.6kbits/s speed=0.0182x elapsed=0:02:28.22    \nframe=   83 fps=0.6 q=32.1 size=     512KiB time=00:00:02.70 bitrate=1553.6kbits/s speed=0.0181x elapsed=0:02:28.77    \nframe=   83 fps=0.6 q=32.1 size=     512KiB time=00:00:02.70 bitrate=1553.6kbits/s speed=0.0181x elapsed=0:02:29.28    \nframe=   83 fps=0.6 q=32.1 size=     512KiB time=00:00:02.70 bitrate=1553.6kbits/s speed=0.018x elapsed=0:02:29.82    \nframe=   84 fps=0.6 q=27.9 size=     512KiB time=00:00:02.73 bitrate=1534.6kbits/s speed=0.0182x elapsed=0:02:30.34    \nframe=   85 fps=0.6 q=30.6 size=     512KiB time=00:00:02.76 bitrate=1516.1kbits/s speed=0.0183x elapsed=0:02:30.85    \nframe=   86 fps=0.6 q=32.2 size=     512KiB time=00:00:02.80 bitrate=1498.1kbits/s speed=0.0185x elapsed=0:02:31.37    \nframe=   86 fps=0.6 q=32.2 size=     512KiB time=00:00:02.80 bitrate=1498.1kbits/s speed=0.0184x elapsed=0:02:31.88    \nframe=   87 fps=0.6 q=33.1 size=     512KiB time=00:00:02.83 bitrate=1480.5kbits/s speed=0.0186x elapsed=0:02:32.39    \nframe=   87 fps=0.6 q=33.1 size=     512KiB time=00:00:02.83 bitrate=1480.5kbits/s speed=0.0185x elapsed=0:02:32.91    \nframe=   87 fps=0.6 q=33.1 size=     512KiB time=00:00:02.83 bitrate=1480.5kbits/s speed=0.0185x elapsed=0:02:33.45    \nframe=   87 fps=0.6 q=33.1 size=     512KiB time=00:00:02.83 bitrate=1480.5kbits/s speed=0.0184x elapsed=0:02:33.98    \nframe=   88 fps=0.6 q=32.8 size=     512KiB time=00:00:02.86 bitrate=1463.3kbits/s speed=0.0186x elapsed=0:02:34.50    \nframe=   88 fps=0.6 q=32.8 size=     512KiB time=00:00:02.86 bitrate=1463.3kbits/s speed=0.0185x elapsed=0:02:35.04    \nframe=   88 fps=0.6 q=32.8 size=     512KiB time=00:00:02.86 bitrate=1463.3kbits/s speed=0.0184x elapsed=0:02:35.58    \nframe=   89 fps=0.6 q=27.8 size=     512KiB time=00:00:02.90 bitrate=1446.4kbits/s speed=0.0186x elapsed=0:02:36.09    \nframe=   89 fps=0.6 q=27.8 size=     512KiB time=00:00:02.90 bitrate=1446.4kbits/s speed=0.0185x elapsed=0:02:36.61    \nframe=   89 fps=0.6 q=27.8 size=     512KiB time=00:00:02.90 bitrate=1446.4kbits/s speed=0.0185x elapsed=0:02:37.13    \nframe=   89 fps=0.6 q=27.8 size=     512KiB time=00:00:02.90 bitrate=1446.4kbits/s speed=0.0184x elapsed=0:02:37.68    \nframe=   89 fps=0.6 q=27.8 size=     512KiB time=00:00:02.90 bitrate=1446.4kbits/s speed=0.0183x elapsed=0:02:38.21    \nframe=   89 fps=0.6 q=27.8 size=     512KiB time=00:00:02.90 bitrate=1446.4kbits/s speed=0.0183x elapsed=0:02:38.74    \nframe=   90 fps=0.6 q=31.1 size=     512KiB time=00:00:02.93 bitrate=1430.0kbits/s speed=0.0184x elapsed=0:02:39.27    \nframe=   90 fps=0.6 q=31.1 size=     512KiB time=00:00:02.93 bitrate=1430.0kbits/s speed=0.0184x elapsed=0:02:39.81    \nframe=   90 fps=0.6 q=31.1 size=     512KiB time=00:00:02.93 bitrate=1430.0kbits/s speed=0.0183x elapsed=0:02:40.34    \nframe=   91 fps=0.6 q=32.4 size=     512KiB time=00:00:02.96 bitrate=1413.9kbits/s speed=0.0184x elapsed=0:02:40.86    \nframe=   91 fps=0.6 q=32.4 size=     512KiB time=00:00:02.96 bitrate=1413.9kbits/s speed=0.0184x elapsed=0:02:41.40    \nframe=   91 fps=0.6 q=32.4 size=     512KiB time=00:00:02.96 bitrate=1413.9kbits/s speed=0.0183x elapsed=0:02:41.92    \nframe=   91 fps=0.6 q=32.4 size=     512KiB time=00:00:02.96 bitrate=1413.9kbits/s speed=0.0183x elapsed=0:02:42.45    \nframe=   92 fps=0.6 q=33.0 size=     512KiB time=00:00:03.00 bitrate=1398.2kbits/s speed=0.0184x elapsed=0:02:42.98    \nframe=   92 fps=0.6 q=33.0 size=     512KiB time=00:00:03.00 bitrate=1398.2kbits/s speed=0.0183x elapsed=0:02:43.51    \nframe=   93 fps=0.6 q=33.0 size=     512KiB time=00:00:03.03 bitrate=1382.9kbits/s speed=0.0185x elapsed=0:02:44.04    \nframe=   93 fps=0.6 q=33.0 size=     512KiB time=00:00:03.03 bitrate=1382.9kbits/s speed=0.0184x elapsed=0:02:44.56    \nframe=   93 fps=0.6 q=33.0 size=     512KiB time=00:00:03.03 bitrate=1382.9kbits/s speed=0.0184x elapsed=0:02:45.08    \nframe=   94 fps=0.6 q=28.7 size=     512KiB time=00:00:03.06 bitrate=1367.8kbits/s speed=0.0185x elapsed=0:02:45.61    \nframe=   95 fps=0.6 q=31.4 size=     512KiB time=00:00:03.10 bitrate=1353.1kbits/s speed=0.0187x elapsed=0:02:46.12    \nframe=   95 fps=0.6 q=31.4 size=     512KiB time=00:00:03.10 bitrate=1353.1kbits/s speed=0.0186x elapsed=0:02:46.64    \nframe=   96 fps=0.6 q=33.1 size=     512KiB time=00:00:03.13 bitrate=1338.7kbits/s speed=0.0187x elapsed=0:02:47.16    \nframe=   96 fps=0.6 q=33.1 size=     512KiB time=00:00:03.13 bitrate=1338.7kbits/s speed=0.0187x elapsed=0:02:47.67    \nframe=   96 fps=0.6 q=33.1 size=     512KiB time=00:00:03.13 bitrate=1338.7kbits/s speed=0.0186x elapsed=0:02:48.19    \nframe=   96 fps=0.6 q=33.1 size=     512KiB time=00:00:03.13 bitrate=1338.7kbits/s speed=0.0186x elapsed=0:02:48.71    \nframe=   97 fps=0.6 q=33.5 size=     512KiB time=00:00:03.16 bitrate=1324.6kbits/s speed=0.0187x elapsed=0:02:49.23    \nframe=   97 fps=0.6 q=33.5 size=     512KiB time=00:00:03.16 bitrate=1324.6kbits/s speed=0.0186x elapsed=0:02:49.80    \nframe=   97 fps=0.6 q=33.5 size=     512KiB time=00:00:03.16 bitrate=1324.6kbits/s speed=0.0186x elapsed=0:02:50.32    \nframe=   97 fps=0.6 q=33.5 size=     512KiB time=00:00:03.16 bitrate=1324.6kbits/s speed=0.0185x elapsed=0:02:50.83    \nframe=   99 fps=0.6 q=31.2 size=     512KiB time=00:00:03.23 bitrate=1297.3kbits/s speed=0.0189x elapsed=0:02:51.35    \nframe=   99 fps=0.6 q=31.2 size=     512KiB time=00:00:03.23 bitrate=1297.3kbits/s speed=0.0188x elapsed=0:02:51.87    \nframe=   99 fps=0.6 q=31.2 size=     512KiB time=00:00:03.23 bitrate=1297.3kbits/s speed=0.0188x elapsed=0:02:52.37    \nframe=  100 fps=0.6 q=33.3 size=     512KiB time=00:00:03.26 bitrate=1284.1kbits/s speed=0.0189x elapsed=0:02:52.90    \nframe=  101 fps=0.6 q=33.8 size=     512KiB time=00:00:03.30 bitrate=1271.1kbits/s speed=0.019x elapsed=0:02:53.41    \nframe=  101 fps=0.6 q=33.8 size=     512KiB time=00:00:03.30 bitrate=1271.1kbits/s speed=0.019x elapsed=0:02:53.94    \nframe=  101 fps=0.6 q=33.8 size=     512KiB time=00:00:03.30 bitrate=1271.1kbits/s speed=0.0189x elapsed=0:02:54.47    \nframe=  101 fps=0.6 q=33.8 size=     512KiB time=00:00:03.30 bitrate=1271.1kbits/s speed=0.0189x elapsed=0:02:55.03    \nframe=  101 fps=0.6 q=33.8 size=     512KiB time=00:00:03.30 bitrate=1271.1kbits/s speed=0.0188x elapsed=0:02:55.56    \nframe=  101 fps=0.6 q=33.8 size=     512KiB time=00:00:03.30 bitrate=1271.1kbits/s speed=0.0187x elapsed=0:02:56.08    \nframe=  101 fps=0.6 q=33.8 size=     512KiB time=00:00:03.30 bitrate=1271.1kbits/s speed=0.0187x elapsed=0:02:56.65    \nframe=  101 fps=0.6 q=33.8 size=     512KiB time=00:00:03.30 bitrate=1271.1kbits/s speed=0.0186x elapsed=0:02:57.24    \nframe=  101 fps=0.6 q=33.8 size=     512KiB time=00:00:03.30 bitrate=1271.1kbits/s speed=0.0186x elapsed=0:02:57.85    \nframe=  101 fps=0.6 q=33.8 size=     512KiB time=00:00:03.30 bitrate=1271.1kbits/s speed=0.0185x elapsed=0:02:58.46    \nframe=  101 fps=0.6 q=33.8 size=     512KiB time=00:00:03.30 bitrate=1271.1kbits/s speed=0.0184x elapsed=0:02:59.05    \nframe=  101 fps=0.6 q=33.8 size=     512KiB time=00:00:03.30 bitrate=1271.1kbits/s speed=0.0184x elapsed=0:02:59.65    \nframe=  101 fps=0.6 q=33.8 size=     512KiB time=00:00:03.30 bitrate=1271.1kbits/s speed=0.0183x elapsed=0:03:00.21    \nframe=  101 fps=0.6 q=33.8 size=     512KiB time=00:00:03.30 bitrate=1271.1kbits/s speed=0.0183x elapsed=0:03:00.73    \nframe=  102 fps=0.6 q=33.7 size=     512KiB time=00:00:03.33 bitrate=1258.4kbits/s speed=0.0184x elapsed=0:03:01.26    \nframe=  102 fps=0.6 q=33.7 size=     512KiB time=00:00:03.33 bitrate=1258.4kbits/s speed=0.0183x elapsed=0:03:01.81    \nframe=  102 fps=0.6 q=33.7 size=     512KiB time=00:00:03.33 bitrate=1258.4kbits/s speed=0.0183x elapsed=0:03:02.36    \nframe=  102 fps=0.6 q=33.7 size=     512KiB time=00:00:03.33 bitrate=1258.4kbits/s speed=0.0182x elapsed=0:03:02.90    \nframe=  102 fps=0.6 q=33.7 size=     512KiB time=00:00:03.33 bitrate=1258.4kbits/s speed=0.0182x elapsed=0:03:03.45    \nframe=  102 fps=0.6 q=33.7 size=     512KiB time=00:00:03.33 bitrate=1258.4kbits/s speed=0.0181x elapsed=0:03:03.97    \nframe=  102 fps=0.6 q=33.7 size=     512KiB time=00:00:03.33 bitrate=1258.4kbits/s speed=0.0181x elapsed=0:03:04.49    \nframe=  103 fps=0.6 q=29.2 size=     512KiB time=00:00:03.36 bitrate=1245.9kbits/s speed=0.0182x elapsed=0:03:05.00    \nframe=  103 fps=0.6 q=29.2 size=     512KiB time=00:00:03.36 bitrate=1245.9kbits/s speed=0.0181x elapsed=0:03:05.52    \nframe=  104 fps=0.6 q=31.7 size=     512KiB time=00:00:03.40 bitrate=1233.7kbits/s speed=0.0183x elapsed=0:03:06.04    \nframe=  104 fps=0.6 q=31.7 size=     512KiB time=00:00:03.40 bitrate=1233.7kbits/s speed=0.0182x elapsed=0:03:06.58    \nframe=  104 fps=0.6 q=31.7 size=     512KiB time=00:00:03.40 bitrate=1233.7kbits/s speed=0.0182x elapsed=0:03:07.10    \nframe=  105 fps=0.6 q=33.3 size=     512KiB time=00:00:03.43 bitrate=1221.7kbits/s speed=0.0183x elapsed=0:03:07.62    \nframe=  105 fps=0.6 q=33.3 size=     512KiB time=00:00:03.43 bitrate=1221.7kbits/s speed=0.0182x elapsed=0:03:08.12    \nframe=  105 fps=0.6 q=33.3 size=     512KiB time=00:00:03.43 bitrate=1221.7kbits/s speed=0.0182x elapsed=0:03:08.65    \nframe=  106 fps=0.6 q=34.1 size=     512KiB time=00:00:03.46 bitrate=1210.0kbits/s speed=0.0183x elapsed=0:03:09.18    \nframe=  106 fps=0.6 q=34.1 size=     512KiB time=00:00:03.46 bitrate=1210.0kbits/s speed=0.0183x elapsed=0:03:09.71    \nframe=  106 fps=0.6 q=34.1 size=     512KiB time=00:00:03.46 bitrate=1210.0kbits/s speed=0.0182x elapsed=0:03:10.23    \nframe=  106 fps=0.6 q=34.1 size=     512KiB time=00:00:03.46 bitrate=1210.0kbits/s speed=0.0182x elapsed=0:03:10.73    \nframe=  107 fps=0.6 q=34.3 size=     512KiB time=00:00:03.50 bitrate=1198.5kbits/s speed=0.0183x elapsed=0:03:11.25    \nframe=  107 fps=0.6 q=34.3 size=     512KiB time=00:00:03.50 bitrate=1198.5kbits/s speed=0.0182x elapsed=0:03:11.78    \nframe=  107 fps=0.6 q=34.3 size=     512KiB time=00:00:03.50 bitrate=1198.5kbits/s speed=0.0182x elapsed=0:03:12.31    \nframe=  107 fps=0.6 q=34.3 size=     512KiB time=00:00:03.50 bitrate=1198.5kbits/s speed=0.0181x elapsed=0:03:12.84    \nframe=  108 fps=0.6 q=30.2 size=     512KiB time=00:00:03.53 bitrate=1187.2kbits/s speed=0.0183x elapsed=0:03:13.36    \nframe=  109 fps=0.6 q=32.1 size=     512KiB time=00:00:03.56 bitrate=1176.1kbits/s speed=0.0184x elapsed=0:03:13.89    \nframe=  109 fps=0.6 q=32.1 size=     512KiB time=00:00:03.56 bitrate=1176.1kbits/s speed=0.0183x elapsed=0:03:14.41    \nframe=  109 fps=0.6 q=32.1 size=     512KiB time=00:00:03.56 bitrate=1176.1kbits/s speed=0.0183x elapsed=0:03:14.92    \nframe=  110 fps=0.6 q=34.3 size=     512KiB time=00:00:03.60 bitrate=1165.2kbits/s speed=0.0184x elapsed=0:03:15.45    \nframe=  110 fps=0.6 q=34.3 size=     512KiB time=00:00:03.60 bitrate=1165.2kbits/s speed=0.0184x elapsed=0:03:15.95    \nframe=  111 fps=0.6 q=35.1 size=     512KiB time=00:00:03.63 bitrate=1154.5kbits/s speed=0.0185x elapsed=0:03:16.47    \nframe=  111 fps=0.6 q=35.1 size=     512KiB time=00:00:03.63 bitrate=1154.5kbits/s speed=0.0184x elapsed=0:03:16.99    \nframe=  111 fps=0.6 q=35.1 size=     512KiB time=00:00:03.63 bitrate=1154.5kbits/s speed=0.0184x elapsed=0:03:17.52    \nframe=  112 fps=0.6 q=35.1 size=     512KiB time=00:00:03.66 bitrate=1144.0kbits/s speed=0.0185x elapsed=0:03:18.06    \nframe=  112 fps=0.6 q=35.1 size=     512KiB time=00:00:03.66 bitrate=1144.0kbits/s speed=0.0185x elapsed=0:03:18.58    \nframe=  113 fps=0.6 q=31.4 size=     512KiB time=00:00:03.70 bitrate=1133.7kbits/s speed=0.0186x elapsed=0:03:19.10    \nframe=  114 fps=0.6 q=34.1 size=     512KiB time=00:00:03.73 bitrate=1123.6kbits/s speed=0.0187x elapsed=0:03:19.62    \nframe=  114 fps=0.6 q=34.1 size=     512KiB time=00:00:03.73 bitrate=1123.6kbits/s speed=0.0187x elapsed=0:03:20.15    \nframe=  114 fps=0.6 q=34.1 size=     512KiB time=00:00:03.73 bitrate=1123.6kbits/s speed=0.0186x elapsed=0:03:20.66    \nframe=  115 fps=0.6 q=35.6 size=     512KiB time=00:00:03.76 bitrate=1113.6kbits/s speed=0.0187x elapsed=0:03:21.22    \nframe=  115 fps=0.6 q=35.6 size=     512KiB time=00:00:03.76 bitrate=1113.6kbits/s speed=0.0187x elapsed=0:03:21.74    \nframe=  116 fps=0.6 q=36.1 size=     512KiB time=00:00:03.80 bitrate=1103.9kbits/s speed=0.0188x elapsed=0:03:22.27    \nframe=  116 fps=0.6 q=36.1 size=     512KiB time=00:00:03.80 bitrate=1103.9kbits/s speed=0.0187x elapsed=0:03:22.81    \nframe=  116 fps=0.6 q=36.1 size=     512KiB time=00:00:03.80 bitrate=1103.9kbits/s speed=0.0187x elapsed=0:03:23.34    \nframe=  116 fps=0.6 q=36.1 size=     512KiB time=00:00:03.80 bitrate=1103.9kbits/s speed=0.0186x elapsed=0:03:23.84    \nframe=  116 fps=0.6 q=36.1 size=     512KiB time=00:00:03.80 bitrate=1103.9kbits/s speed=0.0186x elapsed=0:03:24.37    \nframe=  116 fps=0.6 q=36.1 size=     512KiB time=00:00:03.80 bitrate=1103.9kbits/s speed=0.0185x elapsed=0:03:24.89    \nframe=  116 fps=0.6 q=36.1 size=     512KiB time=00:00:03.80 bitrate=1103.9kbits/s speed=0.0185x elapsed=0:03:25.41    \nframe=  117 fps=0.6 q=31.3 size=     512KiB time=00:00:03.83 bitrate=1094.3kbits/s speed=0.0186x elapsed=0:03:25.92    \nframe=  118 fps=0.6 q=34.9 size=     512KiB time=00:00:03.86 bitrate=1084.8kbits/s speed=0.0187x elapsed=0:03:26.45    \nframe=  118 fps=0.6 q=34.9 size=     512KiB time=00:00:03.86 bitrate=1084.8kbits/s speed=0.0187x elapsed=0:03:26.98    \nframe=  118 fps=0.6 q=34.9 size=     512KiB time=00:00:03.86 bitrate=1084.8kbits/s speed=0.0186x elapsed=0:03:27.51    \nframe=  118 fps=0.6 q=34.9 size=     512KiB time=00:00:03.86 bitrate=1084.8kbits/s speed=0.0186x elapsed=0:03:28.03    \nframe=  118 fps=0.6 q=34.9 size=     512KiB time=00:00:03.86 bitrate=1084.8kbits/s speed=0.0185x elapsed=0:03:28.58    \nframe=  119 fps=0.6 q=36.3 size=     512KiB time=00:00:03.90 bitrate=1075.6kbits/s speed=0.0186x elapsed=0:03:29.13    \nframe=  119 fps=0.6 q=36.3 size=     512KiB time=00:00:03.90 bitrate=1075.6kbits/s speed=0.0186x elapsed=0:03:29.65    \nframe=  119 fps=0.6 q=36.3 size=     512KiB time=00:00:03.90 bitrate=1075.6kbits/s speed=0.0186x elapsed=0:03:30.18    \nframe=  120 fps=0.6 q=31.9 size=     512KiB time=00:00:03.93 bitrate=1066.4kbits/s speed=0.0187x elapsed=0:03:30.73    \nframe=  120 fps=0.6 q=31.9 size=     512KiB time=00:00:03.93 bitrate=1066.4kbits/s speed=0.0186x elapsed=0:03:31.26    \nframe=  121 fps=0.6 q=35.4 size=     768KiB time=00:00:03.96 bitrate=1586.2kbits/s speed=0.0187x elapsed=0:03:31.79    \nframe=  121 fps=0.6 q=35.4 size=     768KiB time=00:00:03.96 bitrate=1586.2kbits/s speed=0.0187x elapsed=0:03:32.31    \nframe=  121 fps=0.6 q=35.4 size=     768KiB time=00:00:03.96 bitrate=1586.2kbits/s speed=0.0186x elapsed=0:03:32.85    \nframe=  121 fps=0.6 q=35.4 size=     768KiB time=00:00:03.96 bitrate=1586.2kbits/s speed=0.0186x elapsed=0:03:33.37    \nframe=  122 fps=0.6 q=37.0 size=     768KiB time=00:00:04.00 bitrate=1573.0kbits/s speed=0.0187x elapsed=0:03:33.92    \nframe=  122 fps=0.6 q=37.0 size=     768KiB time=00:00:04.00 bitrate=1573.0kbits/s speed=0.0187x elapsed=0:03:34.46    \nframe=  122 fps=0.6 q=37.0 size=     768KiB time=00:00:04.00 bitrate=1573.0kbits/s speed=0.0186x elapsed=0:03:35.05    \nframe=  122 fps=0.6 q=37.0 size=     768KiB time=00:00:04.00 bitrate=1573.0kbits/s speed=0.0185x elapsed=0:03:35.66    \nframe=  122 fps=0.6 q=37.0 size=     768KiB time=00:00:04.00 bitrate=1573.0kbits/s speed=0.0185x elapsed=0:03:36.19    \nframe=  122 fps=0.6 q=37.0 size=     768KiB time=00:00:04.00 bitrate=1573.0kbits/s speed=0.0185x elapsed=0:03:36.72    \nframe=  122 fps=0.6 q=37.0 size=     768KiB time=00:00:04.00 bitrate=1573.0kbits/s speed=0.0184x elapsed=0:03:37.26    \nframe=  122 fps=0.6 q=37.0 size=     768KiB time=00:00:04.00 bitrate=1573.0kbits/s speed=0.0184x elapsed=0:03:37.81    \nframe=  123 fps=0.6 q=37.4 size=     768KiB time=00:00:04.03 bitrate=1560.0kbits/s speed=0.0185x elapsed=0:03:38.33    \nframe=  123 fps=0.6 q=37.4 size=     768KiB time=00:00:04.03 bitrate=1560.0kbits/s speed=0.0184x elapsed=0:03:38.89    \nframe=  123 fps=0.6 q=37.4 size=     768KiB time=00:00:04.03 bitrate=1560.0kbits/s speed=0.0184x elapsed=0:03:39.42    \nframe=  123 fps=0.6 q=37.4 size=     768KiB time=00:00:04.03 bitrate=1560.0kbits/s speed=0.0183x elapsed=0:03:39.94    \nframe=  124 fps=0.6 q=32.3 size=     768KiB time=00:00:04.06 bitrate=1547.2kbits/s speed=0.0184x elapsed=0:03:40.46    \nframe=  124 fps=0.6 q=32.3 size=     768KiB time=00:00:04.06 bitrate=1547.2kbits/s speed=0.0184x elapsed=0:03:41.05    \nframe=  124 fps=0.6 q=32.3 size=     768KiB time=00:00:04.06 bitrate=1547.2kbits/s speed=0.0184x elapsed=0:03:41.60    \nframe=  124 fps=0.6 q=32.3 size=     768KiB time=00:00:04.06 bitrate=1547.2kbits/s speed=0.0183x elapsed=0:03:42.16    \nframe=  124 fps=0.6 q=32.3 size=     768KiB time=00:00:04.06 bitrate=1547.2kbits/s speed=0.0183x elapsed=0:03:42.73    \nframe=  124 fps=0.6 q=32.3 size=     768KiB time=00:00:04.06 bitrate=1547.2kbits/s speed=0.0182x elapsed=0:03:43.27    \nframe=  124 fps=0.6 q=32.3 size=     768KiB time=00:00:04.06 bitrate=1547.2kbits/s speed=0.0182x elapsed=0:03:43.81    \nframe=  124 fps=0.6 q=32.3 size=     768KiB time=00:00:04.06 bitrate=1547.2kbits/s speed=0.0181x elapsed=0:03:44.35    \nframe=  124 fps=0.6 q=32.3 size=     768KiB time=00:00:04.06 bitrate=1547.2kbits/s speed=0.0181x elapsed=0:03:44.94    \nframe=  124 fps=0.5 q=32.3 size=     768KiB time=00:00:04.06 bitrate=1547.2kbits/s speed=0.018x elapsed=0:03:45.50    \nframe=  124 fps=0.5 q=32.3 size=     768KiB time=00:00:04.06 bitrate=1547.2kbits/s speed=0.018x elapsed=0:03:46.03    \nframe=  124 fps=0.5 q=32.3 size=     768KiB time=00:00:04.06 bitrate=1547.2kbits/s speed=0.0179x elapsed=0:03:46.55    \nframe=  124 fps=0.5 q=32.3 size=     768KiB time=00:00:04.06 bitrate=1547.2kbits/s speed=0.0179x elapsed=0:03:47.10    \nframe=  124 fps=0.5 q=32.3 size=     768KiB time=00:00:04.06 bitrate=1547.2kbits/s speed=0.0179x elapsed=0:03:47.67    \nframe=  124 fps=0.5 q=32.3 size=     768KiB time=00:00:04.06 bitrate=1547.2kbits/s speed=0.0178x elapsed=0:03:48.27    \nframe=  124 fps=0.5 q=32.3 size=     768KiB time=00:00:04.06 bitrate=1547.2kbits/s speed=0.0178x elapsed=0:03:48.83    \nframe=  124 fps=0.5 q=32.3 size=     768KiB time=00:00:04.06 bitrate=1547.2kbits/s speed=0.0177x elapsed=0:03:49.39    \nframe=  125 fps=0.5 q=35.3 size=     768KiB time=00:00:04.10 bitrate=1534.6kbits/s speed=0.0178x elapsed=0:03:49.94    \nframe=  125 fps=0.5 q=35.3 size=     768KiB time=00:00:04.10 bitrate=1534.6kbits/s speed=0.0178x elapsed=0:03:50.47    \nframe=  126 fps=0.5 q=37.2 size=     768KiB time=00:00:04.13 bitrate=1522.2kbits/s speed=0.0179x elapsed=0:03:51.02    \nframe=  126 fps=0.5 q=37.2 size=     768KiB time=00:00:04.13 bitrate=1522.2kbits/s speed=0.0178x elapsed=0:03:51.56    \nframe=  126 fps=0.5 q=37.2 size=     768KiB time=00:00:04.13 bitrate=1522.2kbits/s speed=0.0178x elapsed=0:03:52.08    \nframe=  126 fps=0.5 q=37.2 size=     768KiB time=00:00:04.13 bitrate=1522.2kbits/s speed=0.0178x elapsed=0:03:52.62    \nframe=  126 fps=0.5 q=37.2 size=     768KiB time=00:00:04.13 bitrate=1522.2kbits/s speed=0.0177x elapsed=0:03:53.15    \nframe=  127 fps=0.5 q=37.6 size=     768KiB time=00:00:04.16 bitrate=1510.0kbits/s speed=0.0178x elapsed=0:03:53.69    \nframe=  127 fps=0.5 q=37.6 size=     768KiB time=00:00:04.16 bitrate=1510.0kbits/s speed=0.0178x elapsed=0:03:54.23    \nframe=  127 fps=0.5 q=37.6 size=     768KiB time=00:00:04.16 bitrate=1510.0kbits/s speed=0.0177x elapsed=0:03:54.75    \nframe=  128 fps=0.5 q=32.5 size=     768KiB time=00:00:04.20 bitrate=1498.0kbits/s speed=0.0179x elapsed=0:03:55.27    \nframe=  128 fps=0.5 q=32.5 size=     768KiB time=00:00:04.20 bitrate=1498.0kbits/s speed=0.0178x elapsed=0:03:55.81    \nframe=  128 fps=0.5 q=32.5 size=     768KiB time=00:00:04.20 bitrate=1498.0kbits/s speed=0.0178x elapsed=0:03:56.33    \nframe=  128 fps=0.5 q=32.5 size=     768KiB time=00:00:04.20 bitrate=1498.0kbits/s speed=0.0177x elapsed=0:03:56.85    \nframe=  129 fps=0.5 q=35.4 size=     768KiB time=00:00:04.23 bitrate=1486.3kbits/s speed=0.0178x elapsed=0:03:57.36    \nframe=  129 fps=0.5 q=35.4 size=     768KiB time=00:00:04.23 bitrate=1486.3kbits/s speed=0.0178x elapsed=0:03:57.87    \nframe=  130 fps=0.5 q=37.6 size=     768KiB time=00:00:04.26 bitrate=1474.6kbits/s speed=0.0179x elapsed=0:03:58.40    \nframe=  130 fps=0.5 q=37.6 size=     768KiB time=00:00:04.26 bitrate=1474.6kbits/s speed=0.0179x elapsed=0:03:58.90    \nframe=  130 fps=0.5 q=37.6 size=     768KiB time=00:00:04.26 bitrate=1474.6kbits/s speed=0.0178x elapsed=0:03:59.43    \nframe=  130 fps=0.5 q=37.6 size=     768KiB time=00:00:04.26 bitrate=1474.6kbits/s speed=0.0178x elapsed=0:03:59.95    \nframe=  131 fps=0.5 q=37.8 size=     768KiB time=00:00:04.30 bitrate=1463.2kbits/s speed=0.0179x elapsed=0:04:00.47    \nframe=  132 fps=0.5 q=32.3 size=     768KiB time=00:00:04.33 bitrate=1452.0kbits/s speed=0.018x elapsed=0:04:00.99    \nframe=  132 fps=0.5 q=32.3 size=     768KiB time=00:00:04.33 bitrate=1452.0kbits/s speed=0.0179x elapsed=0:04:01.52    \nframe=  132 fps=0.5 q=32.3 size=     768KiB time=00:00:04.33 bitrate=1452.0kbits/s speed=0.0179x elapsed=0:04:02.06    \nframe=  133 fps=0.5 q=35.6 size=     768KiB time=00:00:04.36 bitrate=1440.9kbits/s speed=0.018x elapsed=0:04:02.57    \nframe=  134 fps=0.6 q=37.4 size=     768KiB time=00:00:04.40 bitrate=1430.0kbits/s speed=0.0181x elapsed=0:04:03.11    \nframe=  134 fps=0.6 q=37.4 size=     768KiB time=00:00:04.40 bitrate=1430.0kbits/s speed=0.0181x elapsed=0:04:03.63    \nframe=  135 fps=0.6 q=38.1 size=     768KiB time=00:00:04.43 bitrate=1419.2kbits/s speed=0.0182x elapsed=0:04:04.15    \nframe=  135 fps=0.6 q=38.1 size=     768KiB time=00:00:04.43 bitrate=1419.2kbits/s speed=0.0181x elapsed=0:04:04.67    \nframe=  135 fps=0.6 q=38.1 size=     768KiB time=00:00:04.43 bitrate=1419.2kbits/s speed=0.0181x elapsed=0:04:05.19    \nframe=  136 fps=0.6 q=38.3 size=     768KiB time=00:00:04.46 bitrate=1408.6kbits/s speed=0.0182x elapsed=0:04:05.70    \nframe=  136 fps=0.6 q=38.3 size=     768KiB time=00:00:04.46 bitrate=1408.6kbits/s speed=0.0181x elapsed=0:04:06.22    \nframe=  136 fps=0.6 q=38.3 size=     768KiB time=00:00:04.46 bitrate=1408.6kbits/s speed=0.0181x elapsed=0:04:06.76    \nframe=  137 fps=0.6 q=32.6 size=     768KiB time=00:00:04.50 bitrate=1398.2kbits/s speed=0.0182x elapsed=0:04:07.26    \nframe=  137 fps=0.6 q=32.6 size=     768KiB time=00:00:04.50 bitrate=1398.2kbits/s speed=0.0182x elapsed=0:04:07.79    \nframe=  138 fps=0.6 q=37.0 size=     768KiB time=00:00:04.53 bitrate=1387.9kbits/s speed=0.0183x elapsed=0:04:08.34    \nframe=  138 fps=0.6 q=37.0 size=     768KiB time=00:00:04.53 bitrate=1387.9kbits/s speed=0.0182x elapsed=0:04:08.86    \nframe=  138 fps=0.6 q=37.0 size=     768KiB time=00:00:04.53 bitrate=1387.9kbits/s speed=0.0182x elapsed=0:04:09.38    \nframe=  138 fps=0.6 q=37.0 size=     768KiB time=00:00:04.53 bitrate=1387.9kbits/s speed=0.0181x elapsed=0:04:09.90    \nframe=  139 fps=0.6 q=37.5 size=     768KiB time=00:00:04.56 bitrate=1377.8kbits/s speed=0.0182x elapsed=0:04:10.42    \nframe=  140 fps=0.6 q=38.1 size=     768KiB time=00:00:04.60 bitrate=1367.8kbits/s speed=0.0183x elapsed=0:04:10.94    \nframe=  140 fps=0.6 q=38.1 size=     768KiB time=00:00:04.60 bitrate=1367.8kbits/s speed=0.0183x elapsed=0:04:11.46    \nframe=  141 fps=0.6 q=38.4 size=     768KiB time=00:00:04.63 bitrate=1357.9kbits/s speed=0.0184x elapsed=0:04:11.97    \nframe=  141 fps=0.6 q=38.4 size=     768KiB time=00:00:04.63 bitrate=1357.9kbits/s speed=0.0184x elapsed=0:04:12.49    \nframe=  141 fps=0.6 q=38.4 size=     768KiB time=00:00:04.63 bitrate=1357.9kbits/s speed=0.0183x elapsed=0:04:13.03    \nframe=  141 fps=0.6 q=38.4 size=     768KiB time=00:00:04.63 bitrate=1357.9kbits/s speed=0.0183x elapsed=0:04:13.54    \nframe=  142 fps=0.6 q=31.8 size=     768KiB time=00:00:04.66 bitrate=1348.2kbits/s speed=0.0184x elapsed=0:04:14.09    \nframe=  142 fps=0.6 q=31.8 size=     768KiB time=00:00:04.66 bitrate=1348.2kbits/s speed=0.0183x elapsed=0:04:14.63    \nframe=  142 fps=0.6 q=31.8 size=     768KiB time=00:00:04.66 bitrate=1348.2kbits/s speed=0.0183x elapsed=0:04:15.18    \nframe=  142 fps=0.6 q=31.8 size=     768KiB time=00:00:04.66 bitrate=1348.2kbits/s speed=0.0182x elapsed=0:04:15.71    \nframe=  142 fps=0.6 q=31.8 size=     768KiB time=00:00:04.66 bitrate=1348.2kbits/s speed=0.0182x elapsed=0:04:16.26    \nframe=  143 fps=0.6 q=35.4 size=     768KiB time=00:00:04.70 bitrate=1338.7kbits/s speed=0.0183x elapsed=0:04:16.81    \nframe=  143 fps=0.6 q=35.4 size=     768KiB time=00:00:04.70 bitrate=1338.7kbits/s speed=0.0183x elapsed=0:04:17.32    \nframe=  143 fps=0.6 q=35.4 size=     768KiB time=00:00:04.70 bitrate=1338.7kbits/s speed=0.0182x elapsed=0:04:17.85    \nframe=  143 fps=0.6 q=35.4 size=     768KiB time=00:00:04.70 bitrate=1338.7kbits/s speed=0.0182x elapsed=0:04:18.39    \nframe=  144 fps=0.6 q=37.7 size=     768KiB time=00:00:04.73 bitrate=1329.3kbits/s speed=0.0183x elapsed=0:04:18.90    \nframe=  144 fps=0.6 q=37.7 size=     768KiB time=00:00:04.73 bitrate=1329.3kbits/s speed=0.0182x elapsed=0:04:19.43    \nframe=  144 fps=0.6 q=37.7 size=     768KiB time=00:00:04.73 bitrate=1329.3kbits/s speed=0.0182x elapsed=0:04:19.95    \nframe=  144 fps=0.6 q=37.7 size=     768KiB time=00:00:04.73 bitrate=1329.3kbits/s speed=0.0182x elapsed=0:04:20.45    \nframe=  145 fps=0.6 q=37.3 size=     768KiB time=00:00:04.76 bitrate=1320.0kbits/s speed=0.0183x elapsed=0:04:20.98    \nframe=  145 fps=0.6 q=37.3 size=     768KiB time=00:00:04.76 bitrate=1320.0kbits/s speed=0.0182x elapsed=0:04:21.52    \nframe=  145 fps=0.6 q=37.3 size=     768KiB time=00:00:04.76 bitrate=1320.0kbits/s speed=0.0182x elapsed=0:04:22.05    \nframe=  145 fps=0.6 q=37.3 size=     768KiB time=00:00:04.76 bitrate=1320.0kbits/s speed=0.0182x elapsed=0:04:22.57    \nframe=  146 fps=0.6 q=31.9 size=     768KiB time=00:00:04.80 bitrate=1310.8kbits/s speed=0.0182x elapsed=0:04:23.12    \nframe=  146 fps=0.6 q=31.9 size=     768KiB time=00:00:04.80 bitrate=1310.8kbits/s speed=0.0182x elapsed=0:04:23.62    \nframe=  146 fps=0.6 q=31.9 size=     768KiB time=00:00:04.80 bitrate=1310.8kbits/s speed=0.0182x elapsed=0:04:24.14    \nframe=  146 fps=0.6 q=31.9 size=     768KiB time=00:00:04.80 bitrate=1310.8kbits/s speed=0.0181x elapsed=0:04:24.67    \nframe=  146 fps=0.6 q=31.9 size=     768KiB time=00:00:04.80 bitrate=1310.8kbits/s speed=0.0181x elapsed=0:04:25.19    \nframe=  147 fps=0.6 q=35.2 size=     768KiB time=00:00:04.83 bitrate=1301.8kbits/s speed=0.0182x elapsed=0:04:25.71    \nframe=  147 fps=0.6 q=35.2 size=     768KiB time=00:00:04.83 bitrate=1301.8kbits/s speed=0.0182x elapsed=0:04:26.23    \nframe=  149 fps=0.6 q=37.1 size=     768KiB time=00:00:04.90 bitrate=1284.0kbits/s speed=0.0184x elapsed=0:04:26.77    \nframe=  149 fps=0.6 q=37.1 size=     768KiB time=00:00:04.90 bitrate=1284.0kbits/s speed=0.0183x elapsed=0:04:27.29    \nframe=  149 fps=0.6 q=37.1 size=     768KiB time=00:00:04.90 bitrate=1284.0kbits/s speed=0.0183x elapsed=0:04:27.81    \nframe=  149 fps=0.6 q=37.1 size=     768KiB time=00:00:04.90 bitrate=1284.0kbits/s speed=0.0183x elapsed=0:04:28.34    \n[mp4 @ 000001908c0dc580] Starting second pass: moving the moov atom to the beginning of the file\n[out#0/mp4 @ 000001908c0dad00] video:953KiB audio:0KiB subtitle:0KiB other streams:0KiB global headers:2KiB muxing overhead: 0.527151%\nframe=  150 fps=0.6 q=37.1 Lsize=     958KiB time=00:00:04.93 bitrate=1590.7kbits/s speed=0.0184x elapsed=0:04:28.44    \nx265 [info]: frame I:      1, Avg QP:33.74  kb/s: 1528.80 \nx265 [info]: frame P:     32, Avg QP:28.94  kb/s: 3318.57 \nx265 [info]: frame B:    117, Avg QP:32.48  kb/s: 1079.73 \nx265 [info]: Weighted P-Frames: Y:9.4% UV:3.1%\n\nencoded 150 frames in 268.01s (0.56 fps), 1560.34 kb/s, Avg QP:31.73\n",
  "seconds": 268.873140335083,
  "probe_out": {}
}